<?xml version="1.0" encoding="UTF-8" standalone="no"?>
<!-- Created with Inkscape (http://www.inkscape.org/) -->

<svg
   width="80"
   height="80"
   viewBox="0 0 21.166666 21.166667"
   version="1.1"
   id="svg5"
   xmlns="http://www.w3.org/2000/svg"
   xmlns:svg="http://www.w3.org/2000/svg">
  <defs
     id="defs2" />
  <g
     id="layer1">
    <g
       aria-label="WWW"
       transform="scale(0.93146939,1.0735726)"
       id="text10801"
       style="font-size:8.05323px;line-height:1.25;fill:#ffffff;stroke-width:0.201332" />
    <g
       id="g7915"
       transform="rotate(-24.415608,4.4874139,15.12601)" />
    <path
       style="fill:#4d6773;stroke:none;stroke-width:0.0392307"
       d="M 9.4560825,5.4705772 H 6.1606904 C 6.5297742,4.3796058 7.3256497,3.4940784 8.318387,2.926475 8.5329797,2.8037765 8.9980622,2.5750412 8.693669,2.2706597 8.3383552,1.9153343 7.4072118,2.7278143 7.1414613,2.9501419 6.6184741,3.3876916 6.1825025,3.928341 5.8589655,4.5290363 5.7090247,4.8074845 5.6482964,5.2674383 5.4345267,5.4933699 5.2887048,5.6475083 5.006988,5.6952907 4.8268414,5.8118466 4.4110244,6.0808912 4.0764596,6.4869694 3.9256484,6.9613492 c -0.1582451,0.4978 -0.1188101,1.0147062 -0.1188101,1.5300039 0,0.992305 -0.1957543,2.1817849 0.4512765,3.0206199 0.227653,0.295133 0.5358898,0.54727 0.8825725,0.688502 0.196469,0.08007 0.5400127,0.0816 0.6393457,0.294741 0.2440934,0.52381 0.2477814,1.14962 0.508511,1.684612 0.1640238,0.336522 0.596191,0.695838 0.6509956,1.059234 0.1345235,0.892659 -0.1648864,1.864525 0.044998,2.746159 -1.5512682,0.358885 -3.0853236,1.060372 -4.5900111,1.582731 -0.2865504,0.09949 -0.7363514,0.175087 -0.9718106,0.367122 -0.1755867,0.143232 -0.1376966,0.431853 0.073614,0.52075 0.3385042,0.142409 1.1111977,-0.279206 1.4474269,-0.391367 0.985898,-0.328872 1.9573447,-0.701487 2.9423146,-1.033066 0.3331865,-0.112122 0.8205137,-0.400743 1.1728456,-0.385678 0.1711247,0.0073 0.2739091,0.283482 0.3699465,0.398742 0.2333836,0.28007 0.5183575,0.486345 0.8502901,0.633108 0.4950932,0.218907 1.0208644,0.371006 1.5300039,0.55237 0.2648065,0.09431 0.5815965,0.275637 0.8630785,0.293407 0.323537,0.0204 0.717493,-0.21416 1.020003,-0.315023 0.968845,-0.323027 2.144711,-0.604351 2.589237,-1.634632 0.45853,0.241623 1.002505,0.363356 1.490773,0.537148 0.976848,0.347665 1.952166,0.723299 2.942314,1.031105 0.273164,0.0849 1.455269,0.668495 1.399247,0.0011 -0.0322,-0.383314 -1.05315,-0.5626 -1.360013,-0.66715 -1.438008,-0.489953 -2.910303,-0.953584 -4.315395,-1.529884 0.248017,-0.839071 -0.07933,-1.842282 0.04488,-2.70693 0.05288,-0.367986 0.486149,-0.720789 0.651114,-1.059233 0.260729,-0.534992 0.264378,-1.160802 0.508511,-1.684613 0.09933,-0.213141 0.442878,-0.214671 0.639345,-0.294741 0.331933,-0.135229 0.627381,-0.372262 0.85186,-0.649702 0.662217,-0.818514 0.48199,-1.9601709 0.48199,-2.9417269 0,-0.494074 0.04692,-1.0080372 -0.07434,-1.4907721 C 17.409754,6.5928466 17.084726,6.140632 16.635336,5.8377707 16.449932,5.7128204 16.141577,5.6577005 15.995952,5.4933621 15.778142,5.2475805 15.701014,4.784476 15.545464,4.4897971 15.242366,3.9156665 14.816711,3.3955471 14.320716,2.9770196 14.067911,2.7636831 13.037122,1.8766493 12.702129,2.2706519 c -0.299606,0.3523767 0.301332,0.5942977 0.520123,0.7229245 0.905252,0.5322048 1.756953,1.4420783 2.040004,2.4769931 H 11.966864 V 3.1167182 c 0,-0.3177044 0.08089,-0.7684782 -0.06622,-1.0590851 C 11.621398,1.5060545 9.8549502,1.4976994 9.5434961,2.0188256 9.3735086,2.3032953 9.4560899,2.7582166 9.4560899,3.0774851 v 2.3930836 m 0.2359739,1.2724131 c 0.5006642,-0.1413884 1.4878302,-0.1027459 2.0000282,-0.00808 0.274342,0.050726 0.374969,0.4253809 0.113574,0.5724964 -0.150373,0.08466 -0.378853,0.046255 -0.544956,0.046255 -0.451823,0 -1.187637,0.1416628 -1.6067391,-0.02911 C 9.3833156,7.2142271 9.4172898,6.8205844 9.6920638,6.7429864 m 5.3348082,5.6322166 c -0.135464,0.52334 -0.220399,1.0834 -0.470025,1.569234 -0.370496,0.721025 -1.025768,1.375866 -1.609368,1.925844 -0.318553,0.300155 -0.758959,0.819022 -1.215999,0.890384 -0.487601,0.07615 -1.036441,0.0084 -1.530004,0.0084 -0.235542,0 -0.4934058,0.03641 -0.7061558,-0.0827 -0.2690061,-0.150611 -0.8535841,-0.840564 -1.1598995,-0.528404 -0.2237723,0.228049 0.045547,0.459551 0.2183988,0.60086 0.4296172,0.351273 0.8060362,0.637933 1.373041,0.637933 0.5979175,0 1.4759825,0.16269 2.0400045,-0.03801 0.772731,-0.274969 1.240911,-1.039619 1.883081,-1.49199 0,0.816277 0.209885,1.957111 -0.27132,2.667699 -0.328913,0.485718 -0.859941,0.620711 -1.376376,0.816316 -0.43103,0.163239 -0.99109,0.476576 -1.451542,0.505647 -0.245153,0.01545 -0.518946,-0.144687 -0.745387,-0.223501 C 9.37762,19.414399 8.5284675,19.242567 8.0443599,18.768267 7.0325566,17.776863 7.9076794,16.152744 7.5528354,14.964442 7.4592704,14.651105 7.1274562,14.377783 6.9542902,14.101363 6.6533516,13.620863 6.4597072,12.941659 6.4353056,12.375205 Z"
       id="path18103" />
  </g>
</svg>
