<?xml version="1.0" encoding="UTF-8" standalone="no"?>
<!-- Created with Inkscape (http://www.inkscape.org/) -->

<svg
   width="80"
   height="80"
   viewBox="0 0 21.166666 21.166667"
   version="1.1"
   id="svg5"
   xmlns="http://www.w3.org/2000/svg"
   xmlns:svg="http://www.w3.org/2000/svg">
  <defs
     id="defs2" />
  <g
     id="layer1">
    <path
       style="fill:#000000;stroke-width:0.0399367"
       d="m 2.4775466,17.790886 c -0.42,-0.09427 -0.952106,-0.380615 -1.231689,-0.662812 -0.58800496,-0.593502 -0.84094896,-1.610352 -0.73201596,-2.942739 0.142846,-1.747171 0.69176996,-3.59487 1.64603096,-5.5405895 0.624992,-1.274354 1.109184,-2.007803 1.755396,-2.65908 0.327306,-0.329865 0.480501,-0.452569 0.69804,-0.559107 l 0.278705,-0.136499 5.7496664,-0.01053 c 4.983563,-0.0091 5.7768,-0.0025 5.953293,0.04871 1.170208,0.340192 2.653295,2.586398 3.587301,5.4331715 0.46609,1.420605 0.685225,2.49159 0.731345,3.574334 0.04003,0.939515 -0.06881,1.599748 -0.365882,2.21975 -0.226354,0.472412 -0.502335,0.755099 -0.952093,0.975223 -0.432663,0.211749 -0.727313,0.282681 -1.183346,0.284842 -0.780558,0.0038 -1.338249,-0.222956 -1.877509,-0.763082 -0.318565,-0.319077 -0.384158,-0.417121 -1.042721,-1.558567 L 14.789295,14.275882 H 10.724746 6.6602056 l -0.763999,1.274804 c -0.830485,1.385743 -0.991865,1.591803 -1.465589,1.871395 -0.573618,0.338551 -1.396091,0.493888 -1.953071,0.368867 z m 7.283066,-4.696099 c 0.137555,-0.108205 0.1406,-0.284854 0.0072,-0.418253 -0.0948,-0.0948 -0.116536,-0.09803 -0.66077,-0.09803 -0.544231,0 -0.565969,0.0032 -0.660771,0.09803 -0.05391,0.05391 -0.09802,0.144592 -0.09802,0.201499 0,0.05695 0.04411,0.147585 0.09802,0.2015 0.09468,0.09469 0.116982,0.09803 0.653569,0.09803 0.501559,0 0.565771,-0.008 0.660769,-0.08277 z m 3.2077324,-0.0038 c 0.114995,-0.10804 0.118802,-0.268243 0.0096,-0.406993 -0.08261,-0.10502 -0.08391,-0.105223 -0.66077,-0.105223 -0.56043,0 -0.580979,0.0032 -0.676027,0.09803 -0.05391,0.05391 -0.09803,0.144593 -0.09803,0.201505 0,0.05687 0.04411,0.147578 0.09803,0.201493 0.09489,0.09489 0.116188,0.09803 0.666364,0.09803 0.528566,0 0.574809,-0.0058 0.660775,-0.08683 z M 6.7605556,12.499266 c 0.229744,-0.08596 0.490669,-0.323887 0.613554,-0.559491 0.05566,-0.106708 0.07655,-0.255512 0.08832,-0.629004 l 0.01543,-0.489223 h 0.38801 c 0.225991,0 0.470979,-0.02465 0.586705,-0.059 0.242035,-0.07187 0.497881,-0.28353 0.644773,-0.53341 0.09349,-0.159037 0.109408,-0.2302345 0.108615,-0.4858745 -0.0012,-0.363411 -0.08697,-0.55138 -0.362664,-0.794054 -0.242732,-0.213666 -0.485423,-0.284238 -0.97743,-0.284238 h -0.38801 l -0.01555,-0.489223 c -0.01818,-0.572148 -0.07389,-0.717628 -0.376897,-0.984346 -0.321062,-0.282609 -0.825389,-0.360792 -1.178791,-0.182751 -0.187044,0.09423 -0.42467,0.328481 -0.525596,0.51813 -0.06997,0.131474 -0.08777,0.24631 -0.100564,0.648967 l -0.01555,0.489223 h -0.388015 c -0.492005,0 -0.734695,0.07058 -0.977428,0.284238 -0.276367,0.243266 -0.361742,0.430675 -0.361742,0.794054 0,0.3633865 0.08537,0.5507905 0.361742,0.7940635 0.242733,0.213658 0.485423,0.28423 0.977428,0.28423 h 0.388013 l 0.01555,0.489223 c 0.01818,0.57209 0.07389,0.717635 0.376748,0.984217 0.313659,0.276093 0.713543,0.350132 1.103354,0.204278 z m -0.636844,-0.557877 c -0.219703,-0.133958 -0.251544,-0.247887 -0.251544,-0.900019 0,-0.565617 -0.0029,-0.585787 -0.09803,-0.68091 -0.09494,-0.09494 -0.115995,-0.09803 -0.669563,-0.09803 -0.649846,0 -0.788237,-0.04259 -0.916651,-0.2820255 -0.09232,-0.172142 -0.09232,-0.302169 0,-0.47431 0.128414,-0.239446 0.266805,-0.282024 0.916651,-0.282024 0.553568,0 0.574619,-0.0032 0.669563,-0.09803 0.09492,-0.09492 0.09803,-0.116124 0.09818,-0.668937 1.2e-4,-0.499227 0.01011,-0.587261 0.07951,-0.701074 0.232059,-0.380615 0.69957,-0.370308 0.864367,0.01905 0.03724,0.08798 0.05439,0.305828 0.05439,0.690727 0,0.543666 0.0033,0.565438 0.09803,0.660234 0.09494,0.09494 0.115995,0.09803 0.669562,0.09803 0.649849,0 0.788238,0.04259 0.916653,0.282017 0.09232,0.172148 0.09232,0.302174 0,0.474316 -0.128415,0.2394475 -0.266804,0.2820195 -0.916653,0.2820195 -0.553567,0 -0.574618,0.0032 -0.669562,0.09803 -0.0953,0.0953 -0.09803,0.114551 -0.09803,0.692986 0,0.553182 -0.0064,0.604445 -0.09106,0.730078 -0.162198,0.240686 -0.41872,0.302438 -0.655818,0.157865 z m 9.7382864,0.15172 c 0.08508,-0.02547 0.228893,-0.109854 0.31957,-0.187472 0.404925,-0.3466 0.420135,-0.900059 0.03532,-1.28488 -0.384822,-0.384823 -0.938281,-0.369606 -1.28488,0.03532 -0.316874,0.370192 -0.309693,0.853534 0.01779,1.198719 0.243008,0.256134 0.568712,0.341227 0.912186,0.238312 z m -0.487966,-0.629557 c -0.0642,-0.06421 -0.116733,-0.155446 -0.116733,-0.202754 0,-0.120947 0.21017,-0.319493 0.338205,-0.319493 0.144954,0 0.300781,0.16552 0.300781,0.319493 0,0.153973 -0.155827,0.319494 -0.300781,0.319494 -0.0625,0 -0.151794,-0.0471 -0.221469,-0.116746 z m -0.964106,-0.903673 c 0.324979,-0.13554 0.566059,-0.483355 0.566059,-0.8166775 0,-0.454031 -0.420685,-0.878608 -0.870551,-0.878608 -0.494263,0 -0.922304,0.407193 -0.92358,0.878608 -4.6e-4,0.234704 0.152522,0.5609355 0.318999,0.6794785 0.277693,0.197735 0.634743,0.251618 0.909073,0.137199 z M 13.859512,9.9428855 c -0.171264,-0.171266 -0.02406,-0.519178 0.219651,-0.519178 0.139211,0 0.299527,0.166306 0.299527,0.310718 0,0.24557 -0.343961,0.3836725 -0.519178,0.20846 z m 3.585601,0.6169935 c 0.324983,-0.13554 0.566065,-0.483355 0.566065,-0.8166775 0,-0.454031 -0.420686,-0.878608 -0.870551,-0.878608 -0.833542,0 -1.236864,0.997208 -0.61461,1.5196185 0.277541,0.233011 0.623202,0.29908 0.919096,0.175667 z M 16.920058,9.9399905 c -0.137561,-0.108205 -0.140601,-0.284855 -0.0072,-0.418258 0.05391,-0.05391 0.144588,-0.09803 0.201501,-0.09803 0.139211,0 0.299525,0.166307 0.299525,0.310718 0,0.141068 -0.146447,0.2883375 -0.286733,0.2883375 -0.05602,0 -0.149214,-0.03725 -0.207092,-0.08277 z m -1.048377,-0.844656 c 0.216144,-0.0642 0.510649,-0.358695 0.574836,-0.574837 0.179614,-0.604826 -0.251325,-1.175996 -0.884733,-1.172624 -0.442847,0.0025 -0.860368,0.41988 -0.862724,0.862728 -0.0033,0.633404 0.567794,1.064345 1.172621,0.884733 z m -0.497649,-0.666975 c -0.0642,-0.0642 -0.116733,-0.15544 -0.116733,-0.202754 0,-0.116657 0.210148,-0.319494 0.331004,-0.319494 0.277007,0 0.409515,0.341408 0.209957,0.540964 -0.13189,0.131892 -0.280165,0.125351 -0.424225,-0.01872 z M 8.3482446,4.5493025 c 0,-0.118282 0.02627,-0.18782 0.09802,-0.259589 l 0.09803,-0.09801 h 2.1602164 2.160211 l 0.09803,0.09801 c 0.07177,0.07177 0.09803,0.141305 0.09803,0.259589 v 0.161565 h -2.35627 -2.3562674 z m 1.010612,-1.086051 c 0.04166,-0.310609 0.03865,-0.309914 1.3331824,-0.309914 h 1.136842 l 0.116746,0.116734 c 0.07845,0.07844 0.116734,0.157054 0.116734,0.239619 v 0.122889 H 10.699254 9.3361446 Z"
       id="path5616" />
  </g>
</svg>
