<?xml version="1.0" encoding="UTF-8" standalone="no"?>
<!-- Created with Inkscape (http://www.inkscape.org/) -->

<svg
   width="80"
   height="80"
   viewBox="0 0 21.166666 21.166667"
   version="1.1"
   id="svg5"
   xmlns="http://www.w3.org/2000/svg"
   xmlns:svg="http://www.w3.org/2000/svg">
  <defs
     id="defs2" />
  <g
     id="layer1">
    <path
       id="rect7613"
       style="fill:#000000;fill-opacity:1;stroke:none;stroke-width:1.29374;stroke-miterlimit:4;stroke-dasharray:none;stroke-opacity:1"
       d="m 0.70346498,5.4261102 -0.2102694,7.8642508 c 0,0 12.06832842,-0.478854 12.03093442,0 0.246933,0.03821 0.881996,2.748941 0.881996,2.748941 l 1.178298,-1.299454 c 0.384191,0.709108 3.904011,3.557491 3.904011,3.557491 l 2.078499,-2.280636 c 0,0 -2.976633,-2.223281 -2.991255,-2.726342 0,0 1.754092,0.05346 3.214048,-0.339227 l 0.07288,-7.6558689 c 0,0 -19.5371923,-1.2565633 -20.15914202,0.1308451 z M 1.513926,6.853982 H 2.5195903 L 3.2735246,9.884158 4.0174152,6.853982 H 5.0331235 L 5.7663419,9.884158 6.5202763,6.853982 h 1.016336 L 6.2798459,11.912437 H 5.2635098 L 4.5196196,8.9305974 3.776357,11.912437 H 2.7706925 Z m 6.0747903,0 H 8.5943805 L 9.3483148,9.884158 10.092205,6.853982 h 1.015708 l 0.711875,2.9416624 -0.448845,-0.097302 0.710619,2.2140946 H 11.3383 L 10.595037,8.9305974 9.851147,11.912437 H 8.8454827 Z m 5.0069777,0 h 1.015709 L 12.826708,10.013475 11.86122,9.804433 Z m 1.067812,0 h 1.005665 l 0.754562,3.030176 0.743262,-3.030176 h 1.016336 l 0.733219,3.030176 0.753934,-3.030176 h 1.015709 l -1.256767,5.058455 h -1.015708 l -0.05713,-0.229131 0.52292,-0.576908 -0.704965,-0.152545 -0.504716,-2.0232556 -0.453239,1.8160966 -1.67548,-0.362843 z" />
    <g
       aria-label="WWW"
       transform="scale(0.93146939,1.0735726)"
       id="text10801"
       style="font-size:8.05323px;line-height:1.25;fill:#ffffff;stroke-width:0.201332" />
    <g
       id="g7915"
       transform="rotate(-24.415608,4.4874139,15.12601)" />
  </g>
</svg>
