<svg width="30" height="30" viewBox="0 0 30 30" fill="none" xmlns="http://www.w3.org/2000/svg">
<path d="M3.75 0H26.25C28.3125 0 30 1.6875 30 3.75V26.25C30 28.3125 28.3125 30 26.25 30H3.75C1.6875 30 0 28.3125 0 26.25V3.75C0 1.6875 1.6875 0 3.75 0Z" fill="url(#paint0_linear_4_23)"/>
<path d="M19.875 4.6875H10.125C7.125 4.6875 4.6875 7.21875 4.6875 10.2187V19.7813C4.6875 22.7813 7.125 25.3125 10.125 25.3125H19.875C22.875 25.3125 25.3125 22.7813 25.3125 19.7813V10.2187C25.3125 7.21875 22.875 4.6875 19.875 4.6875ZM23.4375 19.5937C23.4375 21.6562 21.75 23.4375 19.6875 23.4375H10.3125C8.25 23.4375 6.5625 21.6562 6.5625 19.5937V10.3125C6.5625 8.25 8.15625 6.5625 10.3125 6.5625H19.6875C21.75 6.5625 23.4375 8.34375 23.4375 10.4063V19.5937Z" fill="white"/>
<path d="M15 9.75C12.0938 9.65625 9.65625 12 9.5625 14.9062C9.46875 17.8125 11.8125 20.25 14.7187 20.3437C17.625 20.4375 20.0625 18.0937 20.1563 15.1875V15.0937C20.25 12.0937 17.9062 9.75 15 9.75ZM15 18.375C13.125 18.375 11.5312 16.875 11.5312 15C11.5312 13.125 13.0312 11.5312 14.9062 11.5312C16.7812 11.5312 18.375 13.0312 18.375 14.9062V15C18.375 16.875 16.875 18.375 15 18.375Z" fill="white"/>
<path d="M20.4375 10.5938C21.0588 10.5938 21.5625 10.0481 21.5625 9.375C21.5625 8.7019 21.0588 8.15625 20.4375 8.15625C19.8162 8.15625 19.3125 8.7019 19.3125 9.375C19.3125 10.0481 19.8162 10.5938 20.4375 10.5938Z" fill="white"/>
<defs>
<linearGradient id="paint0_linear_4_23" x1="5.44078" y1="31.557" x2="24.5592" y2="-1.557" gradientUnits="userSpaceOnUse">
<stop stop-color="#FEC053"/>
<stop offset="0.327" stop-color="#F2203E"/>
<stop offset="0.648" stop-color="#B729A8"/>
<stop offset="1" stop-color="#5342D6"/>
</linearGradient>
</defs>
</svg>
