<svg width="30" height="30" viewBox="0 0 30 30" fill="none" xmlns="http://www.w3.org/2000/svg">
<path d="M26.25 30H3.75C1.68 30 0 28.32 0 26.25V3.75C0 1.68 1.68 0 3.75 0H26.25C28.32 0 30 1.68 30 3.75V26.25C30 28.32 28.32 30 26.25 30Z" fill="#1DA1F2"/>
<path d="M11.52 22.62C18.5925 22.62 22.4625 16.755 22.4625 11.6775C22.4625 11.5125 22.4625 11.3475 22.455 11.1825C23.205 10.6425 23.8575 9.96 24.375 9.1875C23.685 9.495 22.9425 9.6975 22.1625 9.795C22.9575 9.3225 23.565 8.565 23.8575 7.665C23.115 8.1075 22.29 8.4225 21.4125 8.595C20.7075 7.845 19.71 7.38 18.6075 7.38C16.485 7.38 14.76 9.105 14.76 11.2275C14.76 11.5275 14.7975 11.82 14.8575 12.105C11.6625 11.9475 8.8275 10.41 6.93 8.085C6.6 8.655 6.4125 9.315 6.4125 10.02C6.4125 11.355 7.095 12.5325 8.1225 13.2225C7.4925 13.2 6.9 13.0275 6.3825 12.7425V12.795C6.3825 14.655 7.71 16.215 9.465 16.5675C9.1425 16.6575 8.805 16.7025 8.4525 16.7025C8.205 16.7025 7.965 16.68 7.7325 16.635C8.22 18.165 9.645 19.275 11.325 19.305C10.005 20.34 8.3475 20.955 6.5475 20.955C6.24 20.955 5.9325 20.94 5.6325 20.9025C7.3275 21.9825 9.3525 22.62 11.52 22.62Z" fill="white"/>
</svg>
