<svg width="30" height="30" viewBox="0 0 30 30" fill="none" xmlns="http://www.w3.org/2000/svg">
<path d="M25.5 0H4.5C2.01472 0 0 2.01472 0 4.5V25.5C0 27.9853 2.01472 30 4.5 30H25.5C27.9853 30 30 27.9853 30 25.5V4.5C30 2.01472 27.9853 0 25.5 0Z" fill="#6441A4"/>
<path d="M6.93263 5.64356L5.64356 8.92481V22.2842H10.2139V24.7451H12.792L15.1943 22.2842H18.8858L23.8662 17.3037V5.64356H6.93263ZM22.167 16.4834L19.3545 19.2959H14.7842L12.3233 21.7568V19.2959H8.51466V7.34278H22.167V16.4834ZM19.3545 10.624V15.6045H17.5967V10.624H19.3545ZM14.7842 10.624V15.6045H13.085V10.624H14.7842Z" fill="white"/>
</svg>
