<svg width="30" height="21" viewBox="0 0 30 21" fill="none" xmlns="http://www.w3.org/2000/svg">
<path d="M29.373 3.2792C29.028 1.98838 28.0116 0.971953 26.7208 0.627012C24.381 -2.12452e-07 14.9999 0 14.9999 0C14.9999 0 5.61873 -2.12452e-07 3.27891 0.627012C1.98838 0.971953 0.971719 1.98838 0.626719 3.2792C0 5.61873 0 10.5001 0 10.5001C0 10.5001 0 15.3814 0.626719 17.7207C0.971719 19.0115 1.98838 20.0282 3.27891 20.3731C5.61873 20.9999 14.9999 20.9999 14.9999 20.9999C14.9999 20.9999 24.381 20.9999 26.7208 20.3731C28.0116 20.0282 29.028 19.0115 29.373 17.7207C30 15.3814 30 10.5001 30 10.5001C30 10.5001 30 5.61873 29.373 3.2792Z" fill="#ED1F24"/>
<path d="M11.9998 15.0001L19.7938 10.5001L11.9998 6V15.0001Z" fill="white"/>
</svg>
