<svg xmlns="http://www.w3.org/2000/svg" version="1.1" width="600px" height="600px" viewBox="0 0 200 200" style="overflow:hidden!important;"><g id="svga-group-wrapper"><g id="svga-group-backs-single"><path id="SvgjsPath34388" d="M0 0h200v200H0V0z" fill="#ecf0f1" stroke-width="none" opacity="1"></path></g><g id="svga-group-humanwrap-move" transform="matrix(1,0,0,1,0,0)"><g id="svga-group-humanwrap"><g id="svga-group-hair-back-move" transform="matrix(1,0,0,1,0,0)"><g id="svga-group-hair-back"></g></g><g id="svga-group-humanbody-back"><path id="SvgjsPath34315" d="m170 180.3-27.3-6.9-18-9.9-1.5-28.2H76.8l-1.5 28.2-18 9.9-27.3 6.9-9.1 19.7-3 20h164.2l-3-20z" fill="#f0c7b1" stroke-width="none" opacity="1"></path><path id="SvgjsPath34316" d="m76.8 135.3-1.5 28.2-18 9.9-27.3 6.9-9.1 19.7-3 20h14.6v-20l2.7-17.7 23.8-6.4 24.7-8.3 3.5-32.3z" fill="#d19271" stroke-width="none" opacity="1"></path></g><g id="svga-group-chinshadow-single"><path id="SvgjsPath34311" d="m112.9 157.7 10.7-14.9-.4-7.5H76.8l-.8 14.8 5.5 7.6 6.2 3.5h19z" fill="#c27b55" stroke-width="none" opacity="1"></path></g><g id="svga-group-humanbody-front"><path id="SvgjsPath34317" d="m92.8 168.3 2 7.9 6.9 4.6s-8.5-3-8.7-3.6c-.2-.6-.2-8.9-.2-8.9z" fill="#d19271" stroke-width="none" opacity="1"></path></g><g id="svga-group-clothes-single"><path id="SvgjsPath34209" d="m183.7 220-3.2-20.5-9.6-20.1-27.7-7-17.6-9.7-1-1.3.1 2.1.7 2.9-8.8 10.2-9.4 4.2H92.8l-9.4-4.2-8.8-10.2.7-2.9.1-2.1-1 1.3-17.6 9.7-27.8 7-9.5 20.1-3.2 20.5z" fill="#591956" stroke-width="none" opacity="1"></path><path id="SvgjsPath34210" d="m72 164.1-1.1 3.8 7.9 11.6 13.9 6.6 9 1.2h-8.9l-14-6.5-8.7-12.5 1.5-4 .4-.2zM29.6 207l3.5-14.5 2.9.7 2.5 9.3-1.6-9.4-3.3-8.9 27.6-5.8 12-6.2 4.2-2.5-2.8-3.2.7-2.9.1-2.1-1 1.3-17.7 9.7-27.7 7-9.6 20.1-3.1 20.4h13.2l.1-13zm13.6 8.7-1.8-6.5.2 10.8h2.1l-.5-4.3zm84.8-51.6 1.1 3.8-7.9 11.6-13.9 6.6-9 1.2h8.9l14-6.5 8.7-12.5-1.5-4-.4-.2zm28.8 51.6 1.8-6.5-.2 10.8h-2.1l.5-4.3z" fill="#4a0d47" stroke-width="none" opacity="1"></path></g><g id="svga-group-head" transform="matrix(1,0,0,1,0,0)"><g id="svga-group-ears-left-move" transform="matrix(1,0,0,1,0,0)"><g id="svga-group-ears-left"><path id="SvgjsPath34219" d="M63.1 91.8s-6-.7-10.6-3.7c0 0-3.5 9.4-4 14.4 0 0 6.7 13 10 18.5 0 0 5.2-.7 6.3-1.4l1.4-8.4-3.1-19.4z" fill="#f0c7b1" stroke-width="none" opacity="1"></path><path id="SvgjsPath34220" d="M53.3 90c-.2-.4-.8-1.9-.8-1.9 5.2.4 10.7 1.4 10.7 1.4l3 21.6-1.4 8.4c-1.1.7-6.3 1.4-6.3 1.4-.6-1-1.3-2.3-2.1-3.6l2.6 1 3-1.6s.7-11.2.5-11.5c-.1-.3-9-14.8-9.2-15.2z" fill="#e1ac8f" stroke-width="none" opacity="1"></path><path id="SvgjsPath34221" d="m50.3 100.9 2.8-5.5 5.2 6.8 2.2 9.5-1.4 1.9-4.3-7.6 1-4.7-2.6-4z" fill="#d19271" stroke-width="none" opacity="1"></path></g></g><g id="svga-group-ears-right-move" transform="matrix(1,0,0,1,0,0)"><g id="svga-group-ears-right"><path id="SvgjsPath34222" d="M136.9 91.8s6-.7 10.6-3.7c0 0 3.5 9.4 4 14.4 0 0-6.7 13-10 18.5 0 0-5.2-.7-6.3-1.4l-1.4-8.4 3.1-19.4z" fill="#f0c7b1" stroke-width="none" opacity="1"></path><path id="SvgjsPath34223" d="M146.7 90c.2-.4.8-1.9.8-1.9-5.2.4-10.7 1.4-10.7 1.4l-3 21.6 1.4 8.4c1.1.7 6.3 1.4 6.3 1.4.6-1 1.3-2.3 2.1-3.6l-2.6 1-3-1.6s-.7-11.2-.5-11.5c.1-.3 9-14.8 9.2-15.2z" fill="#e1ac8f" stroke-width="none" opacity="1"></path><path id="SvgjsPath34224" d="m149.7 100.9-2.8-5.5-5.2 6.8-2.2 9.5 1.4 1.9 4.3-7.6-1-4.7 2.6-4z" fill="#d19271" stroke-width="none" opacity="1"></path></g></g><g id="svga-group-faceshape-wrap"><g id="svga-group-faceshape-single"><path id="SvgjsPath34297" d="M138.1 60c-6.9-11.6-19.7-19.5-19.7-19.5-7.2-1.5-18.4-2.3-18.4-2.3s-11.1.8-18.4 2.3c0 0-12.8 7.9-19.7 19.5 0 0-5.1 14.5-5.3 24.8l1 29.9 26.7 37.4 6.2 3.5h19l6.2-3.5 26.7-37.4 1-29.9c-.2-10.3-5.3-24.8-5.3-24.8z" fill="#f0c7b1" stroke-width="none" opacity="1"></path><path id="SvgjsPath34298" d="m91 153.7-4.9-5.3-22-36.1-1.3-25.6 3.3-23.3L82.5 44l17.4-3.6 18.5.1c-7.2-1.5-18.4-2.3-18.4-2.3s-11.1.8-18.4 2.3c0 0-12.8 7.9-19.7 19.5 0 0-5.1 14.5-5.3 24.8l1 29.9 26.7 37.4 6.2 3.5h19l6.2-3.5-8.6 1.5-16.1.1z" fill="#d19271" stroke-width="none" opacity="1"></path></g></g><g id="svga-group-mouth-single-move" transform="matrix(1,0,0,1,0,0)"><g id="svga-group-mouth-single"><path id="SvgjsPath34409" d="m86.1 127.33 9.7-2.33 4.34 1.24 4.56-1.44 9.57 2.17s-9.27 1.36-9.41 1.41c-.14.05-4.32 3.14-4.32 3.14s-5.13-2.91-5.36-2.91c-.22-.01-9.08-1.28-9.08-1.28z" fill="#da7c87" stroke-width="none" opacity="1" transform="translate(0 2)"></path><path id="SvgjsPath34410" d="m84.12 127.08 11.78 1.12 5 2.4 3.8-2.7 11.52-1.23-11.12 2.23-4.5 3.3-5.1-3.1z" fill="#cb5f6c" stroke-width="none" opacity="1" transform="translate(0 2)"></path><path id="SvgjsPath34411" d="m92.3 134.6 1.4 1.3 14.2-.2 1.8-1z" fill="#d19271" stroke-width="none" opacity="1" transform="translate(0 2)"></path></g></g><g id="svga-group-eyes-left-move" transform="matrix(1,0,0,1,0,0)"><g id="svga-group-eyes-left"><g id="svga-group-eyesback-left"><path id="SvgjsPath34259" d="m91.9 99-4.5-8s-14.5-.2-20.2.2c0 0 8.5 6.2 10.7 7.7 0-.1 9.3.4 14 .1z" fill="#ffffff" stroke-width="none" opacity="1"></path></g><g id="svga-group-eyesiriswrapper-left" transform="matrix(1,0,0,1,0,0)"><g id="svga-group-eyesiriscontrol-left" transform="matrix(1,0,0,1,0,0)"><g id="svga-group-eyesiris-left"><path id="SvgjsPath34332" d="m79.4 99.5-2.6-1.9-1-3 1-3.1 2.6-1.9h3.2l2.6 1.9 1 3.1-1 3-2.6 1.9z" fill="#4e60a3" stroke-width="none" opacity="1"></path><path id="SvgjsPath34333" d="m82.5 89.8 2.5 1.8.9 2.9-.9 3-2.5 1.8h-3.1L77 97.5l-.9-2.9.9-2.9 2.5-1.8h3m.2-.6h-3.4l-2.8 2-1.1 3.2 1.1 3.2 2.8 2h3.4l2.8-2 1.1-3.2-1.1-3.2-2.8-2z" fill="#253984" stroke-width="none" opacity="1"></path><path id="SvgjsPath34334" d="M81.8 91.9h-1.6l-1.4 1-.6 1.7.6 1.6 1.4 1h1.6l1.4-1 .6-1.6-.6-1.7z" fill="#000000" stroke-width="none" opacity="1"></path><path id="SvgjsPath34335" d="m82.4 99.2.2-.8.9.2.1-.9.8.2s-.2-.8-.1-.8.8.1.8.1l-.5-.8.8-.2-.4-.9.9-.3-.7-.5.5-.7-.7-.3.3-.9-.6-.2.2-.8h-.6l-.2-.6h-.4l-.1-.6 1.3.7.8 1.9.5 1.5-.1.5-.8 2.5-2 1.5-.9.6-2.4-.2.5-.6.5.4.6-.4.8.4z" fill="#253984" stroke-width="none" opacity="1"></path><path id="SvgjsPath34336" d="m76.9 95.9 1.2-.4v.2l-1.2.3v-.1zm.9-1.8c-.5-.1-1-.1-1.1-.1l-.1-.2s.1 0 1.1.1l.1.2zm.5-2.9.1-.1.6.8-.1.1-.6-.8zm2.2-.7h.2v.9h-.2v-.9zm2.8 1.7.7-.6.1.1-.7.6-.1-.1zm.9 1.7.7-.1v.2l-.7.1v-.2zm-.2 1.7.1-.2.7.3-.1.2-.7-.3zm-1.5 1.6.2-.1.4.8-.2.1-.4-.8zm-3.2 1.5.4-1.2.2.1-.4 1.2-.2-.1zm-1.2-1.3.3-.4.1.1-.3.4-.1-.1z" fill="#0e226d" stroke-width="none" opacity="1"></path><path id="SvgjsPath34337" d="m80.6 92.1-1-.3-.7.7.2.9 1 .3.7-.7z" fill="#ffffff" stroke-width="none" opacity="1"></path><path id="SvgjsPath34338" d="m82.7 96.3-.5-.4-.6.4v.6l.6.4.5-.4z" fill="#ffffff" stroke-width="none" opacity="1"></path></g></g></g><g id="svga-group-eyesfront-left"><path id="SvgjsPath34267" d="M67.1 89.3v11.9l7.9 8.4h11.2l7.9-8.4V89.3l-7.9-8.4H75l-7.9 8.4zm.2 1.9c5.6-.4 20.2-.2 20.2-.2l4.5 8c-4.7.3-14-.1-14-.1-2.2-1.5-10.7-7.7-10.7-7.7z" fill="#f0c7b1" stroke-width="none" opacity="1"></path><path id="SvgjsPath34268" d="m65 90.4 2.1 1.5 19.8-.1 3.9 6.6-.8.6 3.2 2-5.4-10.4z" fill="#000000" stroke-width="none" opacity="1"></path></g></g></g><g id="svga-group-eyes-right-move" transform="matrix(1,0,0,1,0,0)"><g id="svga-group-eyes-right"><g id="svga-group-eyesback-right"><path id="SvgjsPath34260" d="m108.1 99 4.5-8s14.5-.2 20.2.2c0 0-8.5 6.2-10.7 7.7 0-.1-9.3.4-14 .1z" fill="#ffffff" stroke-width="none" opacity="1"></path></g><g id="svga-group-eyesiriswrapper-right" transform="matrix(1,0,0,1,0,0)"><g id="svga-group-eyesiriscontrol-right" transform="matrix(1,0,0,1,0,0)"><g id="svga-group-eyesiris-right"><path id="SvgjsPath34339" d="m117.4 99.5-2.6-1.9-1-3 1-3.1 2.6-1.9h3.2l2.6 1.9 1 3.1-1 3-2.6 1.9z" fill="#4e60a3" stroke-width="none" opacity="1"></path><path id="SvgjsPath34340" d="m120.5 89.8 2.5 1.8.9 2.9-.9 2.9-2.5 1.8h-3.1l-2.5-1.8-.9-2.9.9-2.9 2.5-1.8h3.1m.2-.5h-3.4l-2.8 2-1.1 3.2 1.1 3.2 2.8 2h3.4l2.8-2 1.1-3.2-1.1-3.2-2.8-2z" fill="#253984" stroke-width="none" opacity="1"></path><path id="SvgjsPath34341" d="M119.8 91.9h-1.6l-1.4 1-.6 1.7.6 1.6 1.4 1h1.6l1.4-1 .6-1.6-.6-1.7z" fill="#000000" stroke-width="none" opacity="1"></path><path id="SvgjsPath34342" d="m120.4 99.2.2-.8.9.2.1-.9.8.2s-.2-.8-.1-.8.8.1.8.1l-.5-.8.8-.2-.4-.9.9-.3-.7-.5.5-.7-.7-.3.3-.9-.6-.2.2-.8h-.6l-.1-.5h-.4l-.1-.6 1.3.7.8 1.9.5 1.5-.1.5-.8 2.5-2 1.5-.9.6-2.4-.2.5-.6.5.4.6-.4.7.3z" fill="#253984" stroke-width="none" opacity="1"></path><path id="SvgjsPath34343" d="m114.9 95.9 1.2-.4v.2l-1.2.4v-.2zm.9-1.8c-.5-.1-1-.1-1.1-.1l-.1-.2s.1 0 1.1.1l.1.2zm.5-2.9.1-.1.6.8-.1.1-.6-.8zm2.2-.7h.2v.9h-.2v-.9zm2.7 1.7.7-.6.1.1-.7.6-.1-.1zm1 1.7.7-.1v.2l-.7.1v-.2zm-.2 1.7.1-.2.7.3-.1.2-.7-.3zm-1.5 1.6.2-.1.4.8-.2.1-.4-.8zm-3.2 1.5.4-1.2.2.1-.4 1.2-.2-.1zm-1.2-1.3.3-.4.1.1-.3.4-.1-.1z" fill="#0e226d" stroke-width="none" opacity="1"></path><path id="SvgjsPath34344" d="m118.6 92.1-1-.3-.7.7.2.9 1 .3.7-.7z" fill="#ffffff" stroke-width="none" opacity="1"></path><path id="SvgjsPath34345" d="m120.7 96.3-.5-.4-.6.4v.6l.6.4.5-.4z" fill="#ffffff" stroke-width="none" opacity="1"></path></g></g></g><g id="svga-group-eyesfront-right"><path id="SvgjsPath34269" d="M125 80.8h-11.2l-7.9 8.4v11.9l7.9 8.4H125l7.9-8.4V89.3l-7.9-8.5zm-2.9 18s-9.3.4-14 .1l4.5-8s14.5-.2 20.2.2c-.1.1-8.6 6.3-10.7 7.7z" fill="#f0c7b1" stroke-width="none" opacity="1"></path><path id="SvgjsPath34272" d="m135 90.4-2.1 1.5-19.8-.1-3.9 6.6.8.6-3.2 2 5.4-10.4z" fill="#000000" stroke-width="none" opacity="1"></path></g></g></g><g id="svga-group-facehighlight-single"></g><g id="svga-group-eyebrows-left-move" transform="matrix(1,0,0,1,0,2)"><g id="svga-group-eyebrows-left-rotate" transform="matrix(1,1.7453292519943295e-9,-1.7453292519943295e-9,1,1.394518136521583e-7,-1.3866640813375852e-7)"><g id="svga-group-eyebrows-left"><path id="SvgjsPath34183" d="m82.7 74.9-10.4-2.1-7.2 12.6 8.2-8 17.2 9.5 3.3-2.4-.8-4.6z" fill="#2a232b" stroke-width="none" opacity="1"></path><path id="SvgjsPath34184" d="m72.5 76.4-7.4 9.1 8.5-6.6L90.5 87l3.3-2.4-.1-.6c-1.6 1-3.5 2.1-3.5 2.1l-4.7-7.4 1.6 5.3-6.9-4.1-4.3-4.4 1.6 3.2-5-2.3z" fill="#1b141c" stroke-width="none" opacity="1"></path><path id="SvgjsPath34185" d="m76.4 73.6 4.4 4.9-2.6-4.5-1.8-.4zm11.1 3.6 3.1 6.5-1.1-5.5-2-1zm-15.7-3.7 2.9 1.9-2.4-2.6-.5.7z" fill="#3a353a" stroke-width="none" opacity="1"></path></g></g></g><g id="svga-group-eyebrows-right-move" transform="matrix(1,0,0,1,0,2)"><g id="svga-group-eyebrows-right-rotate" transform="matrix(1,1.7453292519943295e-9,-1.7453292519943295e-9,1,1.3936454479335225e-7,-2.1039943476353073e-7)"><g id="svga-group-eyebrows-right"><path id="SvgjsPath34186" d="m107 79.9-.8 4.6 3.3 2.4 17.2-9.5 8.2 8-7.2-12.6-10.4 2.1z" fill="#2a232b" stroke-width="none" opacity="1"></path><path id="SvgjsPath34187" d="m122.5 78.6 1.6-3.2-4.3 4.4-6.9 4.1 1.6-5.3-4.7 7.4s-1.9-1.1-3.5-2.1l-.1.6 3.3 2.4 16.9-8.1 8.5 6.6-7.4-9.1-5 2.3z" fill="#1b141c" stroke-width="none" opacity="1"></path><path id="SvgjsPath34188" d="m121.8 74-2.5 4.5 4.4-4.9-1.9.4zm-11.2 4.2-1.1 5.5 3.1-6.5-2 1zm17.1-5.4-2.4 2.6 2.9-1.9-.5-.7z" fill="#3a353a" stroke-width="none" opacity="1"></path></g></g></g><g id="svga-group-beardwrap"><g id="svga-group-beard-single-move" transform="matrix(1,0,0,1,-1,-2)"><g id="svga-group-beard-single" transform="matrix(0.8999996000000001,0,0,0.8999996000000001,10.005040325176992,13.33505318741149)"><path id="SvgjsPath34173" d="m139.1 103.7-5 2.3-1.6 6.3-.9 9.1-8 4.4-2.5-8.3-5.9-.9-8 .9-5.2 2.5h-3.9l-5.2-2.5-8-.9-5.9.9-2.5 8.3-8-4.4-.9-9.1L66 106l-5-2.3-4 19.1 1.6 9.2 28.2 31h26.5l28.2-30.9 1.6-9.2-.8-14.6-3.2-4.6zm-29.4 37.5-3.8 1.4-2.3-1v-2.9h-7.2v2.9l-2.3 1-3.8-1.4-7.4-12.6 1.1-3.5 5 1.9h7.9l2.5-.8h1.2l2.5.8h7.9l5-1.9 1.1 3.5-7.4 12.6z" fill="#2a232b" stroke-width="none" opacity="1"></path><path id="SvgjsPath34174" d="m105.9 142.6-2.3-.9.7 10.1 1.9-8.1 1.1 9.3.5-9.1 3.5-1.4.5 6.2.8-7.5.4 6.1 1.6-9.8 2.6-6-.1-2.7-7.4 12.6-3.8 1.2zm-9.5-.9-2.3 1-3.8-1.4-5.2-8.8c1.4 3.4 3.9 9.1 3.9 9.1l1.6 6.7 1.3-5.1 2 10.2 1.9-9.4.9 5.8.8-5.6.5-5.3h-1.7l.1 2.8zm-13.6-13.1 1.1-3.5 5 1.9h7.9l2.5-.8h1.2l2.5.8h7.9l5-1.9 1.1 3.5-.2-3.3 2.4-5.5-3.4 4.6-5.2 1.9-7.3-.1-3.6-2.4-3.8 2.4-7.8-.4-5.5-4.2.3 2.6-4.1-6.6 4 11zm-10 5.8c-.1-.7-.7-7.4-1-11.2l-1.3-.7c.8 4.3 2.4 12.6 2.3 11.9zm3.6-8.6L75 125l.8 4 .6-3.2zm-2.3 4.1c0-.4.1-3.1.2-5.3l-1.9-1c.7 2.8 1.7 6.8 1.7 6.3zm-4.8-1.8c0-.4.3-3.7.5-5.9l-1.4-.8s.9 7.4.9 6.7zm56.1-1.9c0 .5 1.5 12.2 1.5 12.2l.4-13.4 1.2 5 .9-6.4.9 2.4.5-3.2.9 1.2-.3-2.5-8 4.4.4 6.6c.1-.1 1.6-6.8 1.6-6.3zM57 122.8l1.6 12.2L74 152l12.7 11h26.5l13-11.1 15.2-16.8 1.6-12.2s-2 7.5-2.2 8c-.3.5-2.3 2.7-2.3 2.7v-4.2s-.9 4.6-.9 5c0 .4-11.6 11.8-11.6 11.8s-.4-3.6-.4-4c0-.4-.9 5.4-.9 5.4l-.5-7.4-1.2 9.3-8.5 7.5-.4-2.7-1.1 3.7-13.3-1.9-12.1 1.5-8.3-7.4-1.5-5.2s-.7 2.8-.7 3.2c0 .4-2.6-7.8-2.6-7.8l.4 5.2-3.2-3.5-2.6-9.4v6.9l-6.9-7.7-2.5-9 1.1-19.2-3 5-.8 14.1z" fill="#1b141c" stroke-width="none" opacity="1"></path></g></g></g><g id="svga-group-mustache-single-move" transform="matrix(1,0,0,1,0,0)"><g id="svga-group-mustache-single"></g></g><g id="svga-group-nose-single-move" transform="matrix(1,0,0,1,0,0)"><g id="svga-group-nose-single"><path id="SvgjsPath34393" d="m96.12 99.91-.45 6.4-5.78 8.87 2.98 2.25 1.63-2.02 4.32 3.82h2.41l4.27-3.82 1.57 1.96 3.15-2.19-5.79-8.92-.56-6.46-3.82-1.63z" fill="#f0c7b1" stroke-width="none" opacity="1" transform="translate(0 1)"></path><path id="SvgjsPath34394" d="m104.86 106.44-1.95-15.67 1.1 14.55-.86-.22 6.58 10.06-2.34 1.73-1.28-1.51.28-1.34-5.15 4.47h-2.4l-5.15-4.47.29 1.34-1.29 1.51-2.34-1.73 6.59-10.06-.86.22 1.33-22.81-2.19 23.93-5.82 8.83 3.81 2.79 1.44-2.01 4.19 3.91h2.4l4.2-3.91 1.43 2.01 3.81-2.79z" fill="#d19271" stroke-width="none" opacity="1" transform="translate(0 1)"></path><path id="SvgjsPath34395" d="m96.15 113.17 2.37 1.46 3.1.06 2.55-1.16-.3-1.76-3.59-.6-3.94.66z" fill="#f8d5c3" stroke-width="none" opacity="1" transform="translate(0 1)"></path></g></g><g id="svga-group-hair-front"><path id="SvgjsPath34431" d="m96.8 52.3 2.7 2.7 5.9 1.3 1.1 5.5-4.2 4.2 8.2-4 2.7-6.8 2.7 4.4 7.6 1.9 2.3-1.1-2.3 5.2 7.1 6.6 2.5-2.5v5.8l3.4 2.9-1.2 4.8 2.8 4.7 2 1.8v2l-1.2.1L137 96l3.2.8-1.1 2.7-2.5 3.9 2.9 3.1-1.7 2.4.5 4.1 3.3.4-1.3-2.3.6-1.5 3.2-3.2-3-4.4 3.2-6.1-.8-1.5s7.7-4.5 7.5-5.2-1.2-5.4-1.2-5.4l.9-2.6s-.4-3.7-.4-4.2 2.2-5.5 2.2-5.5l-1.9-7-1.9-3-1.8-7-5.8-3.9-3.6-4.5-2.8-5-6.5-2.5-2.1-2.5-9.9-6.2-2.5 1.7-7.6-1-1.5-2.9-4.6.8-2.7 1.1-6.3-.4-4.2 3-7.6-.5-3.6 3-2.3 3.6-4.4.6-8.6 4.8-1.7 5.8-2.5 1.3-3 6.3-1.1 3.5-3.1 3.1-.3 7.1 2.3 5.9-2.7 5.3 2.4 8.3 5.1 3.1 1.5 4.8 2.3 4 3 2.1-.2 2.8-4.2 5 7.7-3.9 1.1-7-4.7-7.7 3.3-6.8-1.4-6.5 1.2-8.1 6.1-4.9 5.7 3.6 7.2-2.1 8.6-11 1.5-3.6 2.4-1.8z" fill="#2a232b" stroke-width="none" opacity="1"></path><path id="SvgjsPath34432" d="m86.5 49.7-3.9 7.7-6.8 1.8-5-4.8-4.1-3.2-3 3.2 1.6 3.2-4.3-3.4 6.8-7.3 5.5 4.3 3.4 4.8 3.9-.5 5.9-5.8zM85 43.8l3.1-6.4 18.7-1.5 3.6 8.7-2.2 5.3-4 .9 2.7-2.5.5-5.3-2.4-5.5-16.4.9-3.6 5.4zm32.2 1.5 1.4 8.7 6.4 3.5 6-2 2.4-3.8-4 2.7-4.7.4-4.9-2.4-2.6-7.1zm18.2 8.5s5.6-1.5 6.2-1.3 4.2 2 4.2 2l1.8 6.9-1.8 4.2-.4-5.5-1.3-4.7-3.6-1.5-5.1-.1zm-3.8 6.6 4-2.7 3.6-.7-4.2 2.4-3.4 1zm-55.1-.2-7.3 3.6-8.7-2.7-7.1-.2-3.3 4.2.7 4.4.9-4.9 3.1-2.4 6.7 1.3 8.2 3.8 5.3-3.6 1.5-3.5zm-12 25.3L62 77.8l-5.1-2-4.7 2L50 82l1.5 4.2.4-3.8 5.6-3.8 3.6 1.1 3.4 5.8zM54 87.6l6.9 5.6 4.9 7.8-7.1-6.9-4.7-6.5zm32.6-50.2L83 34.2l-4.6.2-2.9 6.3 2.9 5.9 4.8 4-6.1-2.9-3.8-6.3-.1-3.1 2.3-3.6 3.6-3 7.6.5-.1 5.2zM102.3 66l8.2-4 2.7-6.8-1.7-9.7-8.4-4.1-8.1 2.1 8.6 1.7 4.9 2.6 1.8 7.3-1.1 6-6.9 4.9zm23.6-30.1 1.4 7.2 5.5 4.4 3.4-.2-4.6-2.4-3.6-6.6-2.1-2.4zm4.6 36.2 2.7-5.7 4.7.2-2.6 8.4 3.4 3.4 2.9-2.4-2.3 4.7-2.9-2.4-3.4-2.9v-5.8l-2.5 2.5zm20-8-7.4 7.4 2.9 7.7 1.8 6.6-5.5 6 1 2.2 7.5-5.2-1.2-5.4.9-3.3-.4-4.2 2.2-5.5-1.8-6.3zM113.6 33l3.5 8.4 6.4-.2 1.5-3.5-5.1 1.5-3.9-9.5-2.5 1.7.1 1.6z" fill="#322c33" stroke-width="none" opacity="1"></path></g><g id="svga-group-glasses-single-move" transform="matrix(1,0,0,1,0,0)"><g id="svga-group-glasses-single"></g></g></g></g></g><rect id="svga-credit-rect" width="200" height="15" x="0" y="185" fill="#ecf0f1" opacity="0.5" style="display: none;"></rect><text id="svga-credit-text" font-family="Avenir Next, Roboto, Helvetica, Arial, sans-serif" font-size="10px" text-anchor="start" font-weight="400" size="10px" anchor="start" weight="400" fill="#333333" x="33.402061462402344" y="182.71133995056152" style="display: none;"><tspan id="SvgjsTspan34172" dy="13" x="33.402061462402344">Created on AvatarMaker.com</tspan></text></g><defs id="SvgjsDefs34119"></defs></svg>